<?xml version="1.0" encoding="UTF-8" standalone="no"?>
<svg
   xmlns:dc="http://purl.org/dc/elements/1.1/"
   xmlns:cc="http://creativecommons.org/ns#"
   xmlns:rdf="http://www.w3.org/1999/02/22-rdf-syntax-ns#"
   xmlns:svg="http://www.w3.org/2000/svg"
   xmlns="http://www.w3.org/2000/svg"
   xmlns:sodipodi="http://sodipodi.sourceforge.net/DTD/sodipodi-0.dtd"
   xmlns:inkscape="http://www.inkscape.org/namespaces/inkscape"
   width="600"
   height="450"
   version="1.1"
   id="svg26"
   sodipodi:docname="curiosity.svg"
   inkscape:version="0.92.2 5c3e80d, 2017-08-06">
  <metadata
     id="metadata30">
    <rdf:RDF>
      <cc:Work
         rdf:about="">
        <dc:format>image/svg+xml</dc:format>
        <dc:type
           rdf:resource="http://purl.org/dc/dcmitype/StillImage" />
        <dc:title></dc:title>
      </cc:Work>
    </rdf:RDF>
  </metadata>
  <sodipodi:namedview
     pagecolor="#ffffff"
     bordercolor="#666666"
     borderopacity="1"
     objecttolerance="10"
     gridtolerance="10"
     guidetolerance="10"
     inkscape:pageopacity="1"
     inkscape:pageshadow="2"
     inkscape:window-width="1366"
     inkscape:window-height="716"
     id="namedview28"
     showgrid="false"
     inkscape:zoom="0.60181316"
     inkscape:cx="206.30469"
     inkscape:cy="196.07414"
     inkscape:window-x="0"
     inkscape:window-y="28"
     inkscape:window-maximized="1"
     inkscape:current-layer="main_text" />
  <defs
     id="SvgjsDefs1518" />
  <g
     id="SvgjsG1519"
     transform="matrix(2.0859395,0,0,2.0859395,93.046221,29.628739)"
     rel="inversefill"
     name="filled_container"
     style="fill:#2eb814;fill-opacity:1">
    <defs
       id="defs3" />
    <g
       id="g7"
       style="fill:#2eb814;fill-opacity:1">
      <path
         d="m 23.578,142.948 c 1.016,1.9 2.245,3.494 3.655,4.776 0.801,0.725 1.658,1.344 2.558,1.867 3.109,4.388 6.693,8.653 10.786,12.655 0.638,0.663 1.327,1.274 2.015,1.894 0.688,0.622 1.378,1.246 2.072,1.872 0.724,0.591 1.451,1.185 2.18,1.782 0.73,0.597 1.458,1.204 2.235,1.752 0.767,0.563 1.537,1.128 2.309,1.696 0.766,0.578 1.594,1.071 2.393,1.614 0.814,0.52 1.604,1.091 2.447,1.576 0.84,0.494 1.684,0.989 2.529,1.486 0.833,0.513 1.726,0.966 2.617,1.427 0.891,0.46 1.784,0.921 2.681,1.384 0.88,0.403 1.763,0.806 2.649,1.211 l 1.331,0.608 0.234,0.101 0.175,0.07 0.352,0.139 0.704,0.278 c 0.94,0.372 1.883,0.744 2.829,1.118 0.952,0.358 1.927,0.661 2.895,0.995 1.929,0.697 3.931,1.195 5.927,1.768 4.027,0.983 8.153,1.854 12.384,2.283 l 1.585,0.19 c 0.53,0.053 1.063,0.08 1.596,0.12 1.066,0.073 2.136,0.146 3.207,0.219 2.146,0.025 4.309,0.142 6.477,0.029 4.342,-0.079 8.712,-0.551 13.07,-1.283 4.37,-0.697 8.695,-1.829 12.979,-3.175 8.554,-2.763 16.778,-6.906 24.35,-12.13 l 2.816,-2.002 2.726,-2.137 c 0.924,-0.697 1.782,-1.473 2.661,-2.228 0.871,-0.763 1.77,-1.499 2.594,-2.317 l 2.502,-2.426 2.386,-2.547 c 0.811,-0.836 1.55,-1.737 2.305,-2.625 0.744,-0.898 1.533,-1.76 2.224,-2.701 l 2.131,-2.78 c 0.684,-0.947 1.336,-1.917 2.005,-2.876 0.328,-0.483 0.674,-0.956 0.987,-1.45 l 0.927,-1.49 c 0.605,-1 1.262,-1.972 1.823,-3 l 1.704,-3.072 c 0.573,-1.017 1.074,-2.138 1.612,-3.204 l 0.791,-1.62 c 0.266,-0.542 0.453,-1.029 0.684,-1.546 l 1.321,-3.06 0.357,-0.941 0.301,-0.826 0.599,-1.652 c 0.419,-1.094 0.762,-2.215 1.102,-3.336 0.331,-1.123 0.718,-2.231 1,-3.368 l 0.865,-3.405 c 0.296,-1.133 0.484,-2.29 0.73,-3.434 l 0.346,-1.72 c 0.11,-0.574 0.183,-1.155 0.275,-1.733 0.171,-1.157 0.361,-2.31 0.512,-3.468 l 0.354,-3.486 c 0.143,-1.159 0.159,-2.328 0.233,-3.491 0.06,-1.164 0.139,-2.327 0.122,-3.492 l 0.009,-3.49 -0.154,-3.482 c -0.023,-1.161 -0.18,-2.313 -0.29,-3.466 -0.123,-1.152 -0.215,-2.305 -0.411,-3.447 l -0.521,-3.425 -0.678,-3.389 c -1.927,-8.998 -5.094,-17.645 -9.404,-25.535 -2.199,-3.918 -4.573,-7.708 -7.278,-11.212 -2.672,-3.522 -5.532,-6.862 -8.64,-9.897 -1.502,-1.568 -3.157,-2.966 -4.738,-4.419 -0.831,-0.682 -1.659,-1.362 -2.486,-2.04 -0.415,-0.335 -0.822,-0.681 -1.244,-1.006 l -1.286,-0.948 c -3.376,-2.588 -6.978,-4.783 -10.586,-6.828 -1.85,-0.953 -3.631,-1.955 -5.557,-2.79 -0.942,-0.425 -1.895,-0.887 -2.819,-1.272 -0.917,-0.364 -1.83,-0.727 -2.741,-1.088 l -1.436,-0.564 -1.428,-0.485 c -0.95,-0.322 -1.896,-0.643 -2.84,-0.963 -0.958,-0.273 -1.913,-0.545 -2.865,-0.816 -0.952,-0.27 -1.896,-0.549 -2.859,-0.748 -0.957,-0.218 -1.911,-0.435 -2.861,-0.652 -0.947,-0.225 -1.914,-0.351 -2.863,-0.53 -0.955,-0.153 -1.896,-0.36 -2.85,-0.465 -0.952,-0.116 -1.9,-0.232 -2.844,-0.347 -0.941,-0.134 -1.888,-0.191 -2.829,-0.256 -0.94,-0.066 -1.877,-0.132 -2.81,-0.197 C 109.55,0.061 108.62,0.042 107.693,0.022 106.767,0.002 105.845,-0.025 104.927,0.02 97.582,0.161 90.537,1.166 83.976,2.833 70.87,6.294 59.715,12.057 50.991,18.6 c -4.372,3.266 -8.179,6.684 -11.452,10.073 -0.852,0.814 -1.59,1.705 -2.365,2.525 -0.381,0.417 -0.758,0.828 -1.131,1.235 -0.364,0.415 -0.705,0.843 -1.052,1.256 -0.687,0.832 -1.358,1.644 -2.014,2.438 -0.617,0.822 -1.219,1.624 -1.806,2.405 -4.652,6.288 -7.49,11.763 -9.253,15.555 -0.943,1.875 -1.481,3.375 -1.92,4.36 -0.417,0.992 -0.631,1.504 -0.631,1.504 l -0.002,0.007 c 0,0 -0.195,0.522 -0.574,1.533 -0.356,1.019 -0.997,2.493 -1.593,4.497 -1.313,3.96 -3.002,9.899 -3.925,17.664 -0.108,0.971 -0.22,1.967 -0.334,2.989 -0.067,1.027 -0.135,2.078 -0.205,3.156 -0.03,0.539 -0.075,1.083 -0.095,1.635 -0.008,0.552 -0.016,1.111 -0.023,1.675 0.001,1.128 -0.071,2.283 -0.009,3.46 0.065,4.711 0.49,9.809 1.436,15.183 0.741,4.274 1.88,8.723 3.416,13.253 0.184,-0.686 0.392,-1.364 0.604,-2.041 -1.305,-3.884 -2.309,-7.71 -3.019,-11.404 -2.073,-10.61 -1.93,-20.138 -1.051,-27.822 0.868,-7.709 2.508,-13.618 3.789,-17.561 0.581,-1.995 1.208,-3.463 1.556,-4.478 0.367,-0.998 0.557,-1.516 0.56,-1.525 0.011,-0.024 0.227,-0.531 0.639,-1.496 0.442,-0.978 0.997,-2.489 1.94,-4.333 1.766,-3.739 4.625,-9.172 9.278,-15.377 C 36.382,32.77 42.811,25.734 51.593,19.431 60.322,13.12 71.413,7.54 84.369,4.538 c 6.474,-1.466 13.385,-2.266 20.54,-2.216 0.895,-0.022 1.792,0.028 2.692,0.072 0.901,0.042 1.805,0.083 2.713,0.125 0.905,0.087 1.813,0.175 2.726,0.263 0.912,0.087 1.829,0.165 2.74,0.32 0.913,0.136 1.83,0.272 2.75,0.409 0.923,0.124 1.831,0.351 2.752,0.523 0.915,0.198 1.847,0.342 2.759,0.585 0.914,0.233 1.832,0.467 2.753,0.702 0.926,0.216 1.834,0.51 2.747,0.795 0.913,0.286 1.829,0.571 2.747,0.859 0.904,0.333 1.81,0.667 2.72,1.002 l 1.366,0.503 c 0.433,0.17 0.895,0.378 1.341,0.566 0.901,0.386 1.804,0.773 2.711,1.16 0.897,0.402 1.764,0.855 2.652,1.283 1.786,0.825 3.494,1.846 5.244,2.803 3.415,2.057 6.814,4.246 9.982,6.808 l 1.207,0.938 c 0.396,0.322 0.776,0.663 1.166,0.994 0.774,0.668 1.55,1.338 2.327,2.01 1.474,1.431 3.021,2.8 4.415,4.336 2.892,2.969 5.534,6.223 7.991,9.637 2.489,3.396 4.65,7.057 6.641,10.824 3.938,7.565 6.831,15.789 8.513,24.323 1.686,8.535 2.142,17.379 1.326,26.142 l -0.354,3.283 c -0.149,1.091 -0.336,2.177 -0.503,3.266 -0.091,0.543 -0.161,1.091 -0.268,1.631 l -0.337,1.619 c -0.239,1.076 -0.418,2.166 -0.705,3.232 -1.023,4.289 -2.432,8.505 -3.994,12.605 -1.699,4.128 -3.543,8.104 -5.743,11.943 -0.522,0.972 -1.138,1.89 -1.702,2.837 l -0.864,1.41 c -0.293,0.467 -0.617,0.913 -0.923,1.371 -0.625,0.906 -1.233,1.826 -1.873,2.722 l -1.994,2.632 c -5.413,6.939 -11.808,13.065 -18.886,18.123 -7.075,5.062 -14.82,9.066 -22.873,11.874 -4.033,1.377 -8.116,2.561 -12.256,3.328 -4.129,0.801 -8.283,1.359 -12.424,1.538 -2.067,0.163 -4.133,0.099 -6.187,0.13 -1.026,-0.045 -2.05,-0.088 -3.072,-0.133 -0.51,-0.026 -1.022,-0.038 -1.53,-0.075 l -1.522,-0.145 c -4.062,-0.306 -8.038,-1.042 -11.935,-1.887 -1.93,-0.502 -3.871,-0.929 -5.744,-1.555 -0.94,-0.298 -1.888,-0.564 -2.814,-0.886 -0.921,-0.337 -1.84,-0.674 -2.755,-1.009 -0.452,-0.169 -0.927,-0.332 -1.359,-0.504 l -1.346,-0.573 c -0.896,-0.382 -1.789,-0.762 -2.679,-1.141 -0.864,-0.42 -1.726,-0.838 -2.584,-1.256 -0.858,-0.417 -1.718,-0.825 -2.541,-1.303 -0.831,-0.46 -1.66,-0.919 -2.485,-1.376 -0.831,-0.448 -1.608,-0.982 -2.41,-1.466 -0.788,-0.507 -1.605,-0.963 -2.362,-1.505 -0.763,-0.532 -1.524,-1.061 -2.282,-1.588 -0.769,-0.512 -1.49,-1.084 -2.214,-1.645 -0.725,-0.561 -1.446,-1.121 -2.165,-1.677 -0.69,-0.592 -1.377,-1.181 -2.062,-1.768 -0.686,-0.585 -1.373,-1.164 -2.009,-1.793 -3.254,-3.022 -6.195,-6.225 -8.856,-9.531 0.231,0.062 0.463,0.124 0.698,0.174 2.463,0.526 5.113,0.419 7.807,-0.352 0.102,-0.028 0.196,-0.059 0.293,-0.087 -0.889,-0.785 -1.832,-1.504 -2.847,-2.14 -1.604,0.238 -3.172,0.203 -4.651,-0.111 -2.067,-0.444 -4.185,-1.184 -5.819,-2.67 -1.6,-1.459 -3.053,-4.042 -4.042,-6.46 2.796,-7.631 1.636,-11.844 -3.331,-16.899 -2.837,5.549 -3.59,11.442 0.664,16.816 0.188,0.574 0.386,1.117 0.605,1.653 -6.879,-6.4 -14.747,-9.121 -22.649,-1.218 9.788,2.096 13.684,-4.301 18.524,-0.083 -4.215,-0.728 -10.32,1.274 -11.684,3.522 5.878,0.936 11.135,-2.732 16.732,-0.229 z"
         id="path5"
         style="fill:#2eb814;fill-opacity:1"
         inkscape:connector-curvature="0" />
    </g>
  </g>
  <g
     id="main_text"
     rel="mainfill"
     name="main_text"
     transform="translate(261.77733,171.30189)"
     style="fill:#2eb814;fill-opacity:1">
    <path
       d="m 35.672,53.816 q 0.448,0.224 0.644,0.672 0.196,0.448 0.028,0.896 -1.512,3.64 -3.332,6.552 -1.82,2.912 -4.032,4.928 -2.212,2.016 -4.9,3.08 -2.688,1.064 -5.936,1.064 h -0.672 q -2.184,-0.112 -4.06,-0.84 -1.876,-0.728 -3.332,-2.072 -1.456,-1.4 -2.24,-3.64 -0.784,-2.24 -0.784,-4.928 0,-2.576 0.672,-5.432 Q 8.4,51.24 9.408,48.048 7.448,47.6 5.796,46.704 4.144,45.808 2.856,44.52 1.344,42.952 0.56,40.796 -0.224,38.64 0.056,35.84 0.28,33.264 1.344,30.688 1.848,29.4 2.548,28.28 q 0.7,-1.12 1.484,-2.072 0.336,-0.392 0.812,-0.392 0.476,0 0.868,0.28 0.392,0.336 0.42,0.812 0.028,0.476 -0.308,0.868 -1.4,1.568 -2.296,3.808 -0.952,2.24 -1.12,4.48 -0.168,2.24 0.42,3.92 0.588,1.68 1.708,2.912 2.128,2.128 5.712,2.912 0.224,-0.616 0.448,-1.176 l 0.448,-1.12 q 1.736,-4.032 3.808,-7.588 2.072,-3.556 4.2,-5.74 1.96,-2.016 4.144,-3.136 2.352,-1.12 4.48,-1.12 h 0.336 q 1.4,0.112 2.604,0.644 1.204,0.532 2.1,1.54 0.896,0.952 1.4,2.38 0.504,1.428 0.504,3.276 v 0.56 q -0.056,0.84 -0.252,1.68 -0.196,0.84 -0.476,1.68 -0.28,0.784 -0.672,1.568 -0.392,0.784 -0.952,1.512 l -0.056,0.112 q -1.512,1.96 -3.752,3.472 -2.24,1.512 -4.872,2.52 -2.912,1.064 -5.936,1.484 -3.024,0.42 -5.656,0.14 L 11.76,48.44 q -0.952,3.136 -1.652,5.88 -0.7,2.744 -0.7,5.208 0,2.128 0.588,3.948 0.588,1.82 1.708,2.884 2.24,2.128 5.88,2.24 0.112,0.056 0.56,0.056 2.912,0 5.264,-0.952 2.352,-0.952 4.284,-2.772 1.932,-1.82 3.528,-4.452 1.596,-2.632 2.94,-5.992 0.168,-0.448 0.616,-0.644 0.448,-0.196 0.896,-0.028 z M 13.328,44.408 Q 12.992,45.36 12.6,46.2 q 2.352,0.168 5.012,-0.224 2.66,-0.392 5.236,-1.344 2.352,-0.896 4.34,-2.184 1.988,-1.288 3.276,-3.024 0.448,-0.616 0.756,-1.26 0.308,-0.644 0.588,-1.26 0.224,-0.672 0.364,-1.344 0.14,-0.672 0.14,-1.344 0,-0.112 0.028,-0.224 0.028,-0.112 0.028,-0.224 0,-2.632 -1.288,-4.088 -1.232,-1.288 -3.08,-1.4 h -0.224 q -1.512,0 -3.416,0.896 -1.848,0.952 -3.472,2.632 -1.96,2.016 -3.948,5.376 -1.988,3.36 -3.612,7.224 z m 42.896,9.464 q 0.448,0.224 0.616,0.672 0.168,0.448 -0.056,0.896 l -0.056,0.168 q -0.784,1.792 -1.764,3.808 -0.98,2.016 -2.212,3.752 Q 51.52,64.904 49.98,66.052 48.44,67.2 46.592,67.2 H 46.536 46.48 q -1.12,0 -1.904,-0.448 Q 43.792,66.304 43.344,65.576 43.008,65.072 42.84,64.456 42.672,63.84 42.56,63.224 41.328,64.96 39.816,66.08 38.304,67.2 36.4,67.2 h -0.056 q -1.12,0 -1.904,-0.448 -0.784,-0.448 -1.288,-1.176 -0.448,-0.672 -0.616,-1.456 -0.168,-0.784 -0.168,-1.624 v -0.168 q 0,-1.288 0.616,-3.472 0.28,-1.008 0.588,-2.128 0.308,-1.12 0.756,-2.296 0.224,-0.616 0.616,-1.792 0.392,-1.176 1.008,-2.8 0.728,-1.96 1.54,-4.172 0.812,-2.212 1.596,-4.34 0.168,-0.448 0.616,-0.644 0.448,-0.196 0.896,-0.028 0.448,0.168 0.644,0.616 0.196,0.448 0.028,0.896 -0.896,2.464 -1.68,4.676 -0.784,2.212 -1.4,3.836 -0.56,1.512 -0.98,2.688 -0.42,1.176 -0.644,1.792 -0.448,1.176 -0.756,2.24 -0.308,1.064 -0.588,2.016 -0.224,0.952 -0.364,1.68 -0.14,0.728 -0.14,1.288 v 0.112 q 0,0.504 0.084,0.98 0.084,0.476 0.308,0.812 0.392,0.56 1.288,0.56 1.288,0 2.436,-1.008 1.148,-1.008 2.156,-2.52 1.008,-1.512 1.876,-3.304 0.868,-1.792 1.54,-3.36 V 54.6 q 0.056,-0.056 0.056,-0.168 0.224,-0.616 0.644,-1.792 0.42,-1.176 0.98,-2.8 0.784,-1.96 1.568,-4.172 0.784,-2.212 1.568,-4.34 0.168,-0.448 0.616,-0.644 0.448,-0.196 0.896,-0.028 0.448,0.168 0.672,0.616 0.224,0.448 0.056,0.896 -0.952,2.464 -1.736,4.676 -0.784,2.212 -1.4,3.836 -0.56,1.512 -0.952,2.688 -0.392,1.176 -0.672,1.792 v 0.056 q 0,0.056 -0.028,0.112 -0.028,0.056 -0.028,0.112 -0.392,1.12 -0.7,2.128 -0.308,1.008 -0.532,1.848 -0.504,1.848 -0.504,2.968 v 0.112 q 0,0.504 0.084,0.98 0.084,0.476 0.308,0.812 0.392,0.56 1.232,0.56 h 0.056 q 1.288,0 2.436,-1.008 1.148,-1.008 2.156,-2.52 1.008,-1.512 1.848,-3.304 0.84,-1.792 1.512,-3.36 l 0.112,-0.168 q 0.168,-0.448 0.644,-0.644 0.476,-0.196 0.924,0.028 z m 20.552,0 q 0.448,0.224 0.644,0.672 0.196,0.448 -0.028,0.896 l -0.056,0.168 q -0.784,1.792 -1.764,3.808 -0.98,2.016 -2.212,3.752 -1.232,1.736 -2.772,2.884 -1.54,1.148 -3.444,1.148 h -0.056 q -1.12,0 -1.904,-0.448 Q 64.4,66.304 63.896,65.576 63.448,64.904 63.28,64.12 63.112,63.336 63.112,62.496 v -0.168 q 0,-1.288 0.616,-3.472 0.28,-1.008 0.588,-2.128 0.308,-1.12 0.756,-2.296 0.392,-1.12 0.616,-1.848 0.224,-0.728 0.392,-1.288 0.28,-0.784 0.476,-1.4 0.196,-0.616 0.532,-1.512 l -0.896,-0.28 q -1.232,-0.448 -2.576,-0.896 -1.344,-0.448 -2.632,-1.064 -0.112,0.392 -0.28,0.756 -0.168,0.364 -0.28,0.644 V 47.6 l -4.536,9.8 q -0.224,0.448 -0.672,0.616 -0.448,0.168 -0.896,-0.056 -0.448,-0.224 -0.616,-0.672 -0.168,-0.448 0.056,-0.896 l 4.48,-9.744 0.672,-1.68 q -1.4,-0.952 -2.212,-2.212 -0.812,-1.26 -0.644,-3.052 0.168,-1.232 1.064,-2.128 0,-0.056 0.056,-0.056 1.008,-0.896 2.296,-0.896 0.392,0 0.952,0.112 l 0.056,0.056 q 0.616,0.168 1.064,0.56 0.448,0.392 0.728,0.896 0.448,0.84 0.448,2.072 0,0.728 -0.28,1.68 -0.112,0.448 -0.28,0.924 -0.168,0.476 -0.336,0.98 1.176,0.616 2.52,1.064 1.344,0.448 2.576,0.896 1.288,0.392 2.128,0.672 0.448,0.168 0.644,0.644 0.196,0.476 0.028,0.924 v 0.056 q -0.504,1.288 -0.784,2.1 -0.28,0.812 -0.56,1.764 -0.224,0.616 -0.476,1.372 l -0.588,1.764 q -0.392,1.176 -0.728,2.24 -0.336,1.064 -0.56,2.016 -0.28,0.952 -0.392,1.68 -0.112,0.728 -0.168,1.288 v 0.112 q 0,0.504 0.084,0.98 0.084,0.476 0.364,0.812 0.168,0.28 0.448,0.42 0.28,0.14 0.784,0.14 1.344,0 2.492,-1.008 1.148,-1.008 2.156,-2.52 1.008,-1.512 1.848,-3.304 0.84,-1.792 1.512,-3.36 l 0.056,-0.168 q 0.224,-0.448 0.672,-0.644 0.448,-0.196 0.896,0.028 z M 60.2,41.272 q 0.168,-0.504 0.168,-1.008 0,-0.56 -0.168,-0.896 -0.168,-0.28 -0.392,-0.336 h -0.056 q -0.112,0 -0.14,-0.028 -0.028,-0.028 -0.14,-0.028 -0.392,0 -0.672,0.28 h -0.056 q -0.224,0.224 -0.336,0.728 -0.112,0.784 0.28,1.428 0.392,0.644 1.064,1.204 l 0.224,-0.672 z m 23.184,-3.416 q -0.784,0 -1.372,-0.56 -0.588,-0.56 -0.588,-1.344 0,-0.784 0.588,-1.344 0.588,-0.56 1.372,-0.56 0.784,0 1.344,0.56 0.56,0.56 0.56,1.344 0,0.784 -0.56,1.344 -0.56,0.56 -1.344,0.56 z m 3.696,16.016 q 0.448,0.168 0.644,0.644 0.196,0.476 -0.028,0.924 -0.784,1.68 -1.708,3.64 -0.924,1.96 -2.1,3.696 -1.288,1.904 -2.912,3.164 -1.624,1.26 -3.584,1.26 h -0.056 q -1.12,0 -1.904,-0.448 Q 74.648,66.304 74.144,65.576 73.696,64.904 73.528,64.12 73.36,63.336 73.36,62.496 v -0.168 q 0,-1.288 0.616,-3.472 0.28,-1.008 0.588,-2.128 0.308,-1.12 0.756,-2.296 0.112,-0.448 0.448,-1.316 0.336,-0.868 0.784,-2.156 0.448,-1.288 0.952,-2.716 0.504,-1.428 1.064,-2.828 0.056,-0.224 0.168,-0.56 l 0.28,-0.84 0.952,-2.576 q 0.112,-0.448 0.56,-0.672 0.448,-0.224 0.896,-0.056 0.448,0.112 0.672,0.56 0.224,0.448 0.056,0.896 l -0.896,2.632 -0.504,1.4 q -0.616,1.736 -1.12,3.136 -0.504,1.4 -0.896,2.464 -0.392,1.064 -0.672,1.904 -0.28,0.84 -0.504,1.456 -0.448,1.176 -0.756,2.24 -0.308,1.064 -0.588,2.016 -0.224,0.952 -0.364,1.68 -0.14,0.728 -0.14,1.288 v 0.112 q 0,0.504 0.084,0.98 0.084,0.476 0.308,0.812 0.392,0.56 1.232,0.56 h 0.056 q 1.288,0 2.408,-0.952 1.12,-0.952 2.128,-2.408 1.12,-1.624 1.988,-3.5 0.868,-1.876 1.596,-3.5 0.224,-0.448 0.672,-0.644 0.448,-0.196 0.896,0.028 z m 21.896,0 q 0.448,0.168 0.644,0.616 0.196,0.448 -0.028,0.896 l -0.224,0.56 -0.224,0.56 q -0.112,0.224 -0.252,0.448 -0.14,0.224 -0.252,0.504 -0.616,1.12 -1.26,2.156 -0.644,1.036 -1.54,1.932 -0.952,0.952 -2.156,1.512 -1.204,0.56 -2.772,0.56 -0.84,0 -1.568,-0.168 -1.4,-0.448 -2.464,-1.344 -1.568,2.128 -3.584,3.612 -2.016,1.484 -4.032,1.484 -2.296,0 -3.416,-1.176 -1.12,-1.176 -1.372,-3.052 -0.252,-1.876 0.168,-4.2 0.42,-2.324 1.176,-4.592 0.756,-2.268 1.652,-4.284 0.896,-2.016 1.68,-3.304 1.568,-2.576 3.528,-4.284 1.96,-1.708 4.312,-1.708 h 0.056 q 1.232,0.056 2.324,0.476 1.092,0.42 1.876,1.372 0.672,0.784 1.064,1.904 0.392,1.12 0.336,2.632 0,1.344 -0.336,2.94 -0.336,1.596 -0.924,3.332 -0.588,1.736 -1.372,3.5 -0.784,1.764 -1.736,3.332 0.616,0.784 1.68,1.064 0.56,0.112 0.952,0.112 1.008,0 1.82,-0.392 0.812,-0.392 1.428,-1.008 0.728,-0.728 1.316,-1.624 0.588,-0.896 1.036,-1.848 0.112,-0.224 0.224,-0.42 0.112,-0.196 0.224,-0.476 0.112,-0.224 0.224,-0.476 0.112,-0.252 0.224,-0.532 0.168,-0.448 0.644,-0.644 0.476,-0.196 0.924,0.028 z m -12.04,-0.056 q 0.448,0.112 0.7,0.532 0.252,0.42 0.14,0.924 -0.112,0.336 -0.168,0.672 -0.056,0.336 -0.112,0.616 1.288,-2.52 2.016,-5.096 0.728,-2.576 0.784,-4.536 0.056,-1.904 -0.84,-2.912 -0.448,-0.504 -1.064,-0.756 -0.616,-0.252 -1.4,-0.308 -1.624,0 -3.08,1.372 -1.456,1.372 -2.688,3.5 -0.56,0.896 -1.288,2.492 -0.728,1.596 -1.428,3.5 -0.7,1.904 -1.176,3.864 -0.476,1.96 -0.532,3.556 -0.056,1.596 0.504,2.604 0.56,1.008 1.96,1.008 1.568,0 3.22,-1.456 1.652,-1.456 3.052,-3.416 -0.448,-1.064 -0.448,-2.632 0,-1.344 0.392,-2.688 0.112,-0.504 0.532,-0.728 0.42,-0.224 0.924,-0.112 z m 24.752,-5.432 q 1.176,2.016 2.184,4.144 1.008,2.128 1.064,4.648 v 0.056 0.056 q -0.056,2.52 -0.98,4.368 -0.924,1.848 -2.38,3.08 -1.456,1.232 -3.276,1.82 -1.82,0.588 -3.612,0.644 h -0.056 q -0.168,0 -0.308,-0.028 -0.14,-0.028 -0.252,-0.028 -1.792,-0.112 -3.22,-0.812 -1.428,-0.7 -2.492,-1.82 -1.008,-1.12 -1.568,-2.548 -0.56,-1.428 -0.56,-2.94 V 58.52 q 0.112,-1.568 0.7,-2.996 0.588,-1.428 1.652,-2.548 0.952,-1.064 2.296,-1.652 1.344,-0.588 2.968,-0.644 1.008,0 2.016,0.448 1.008,0.448 1.792,1.288 0.672,0.728 1.092,1.736 0.42,1.008 0.476,2.184 0,0.504 -0.336,0.84 -0.336,0.336 -0.84,0.336 -0.504,0 -0.84,-0.336 -0.336,-0.336 -0.336,-0.84 -0.056,-1.4 -0.952,-2.352 -0.84,-0.952 -2.016,-0.952 -1.12,0 -2.016,0.42 -0.896,0.42 -1.568,1.148 -0.784,0.784 -1.204,1.876 -0.42,1.092 -0.532,2.212 v 0.336 q 0,2.24 1.512,3.864 0.728,0.784 1.764,1.288 1.036,0.504 2.324,0.616 0.168,0.056 0.448,0.056 h 0.056 q 1.4,-0.056 2.8,-0.504 1.4,-0.448 2.576,-1.4 1.12,-0.952 1.792,-2.352 0.672,-1.4 0.728,-3.36 v -0.056 q -0.056,-2.016 -0.952,-3.92 -0.896,-1.904 -1.96,-3.696 -0.28,-0.448 -0.476,-0.812 -0.196,-0.364 -0.476,-0.812 -0.616,0.616 -1.12,1.288 -0.336,0.392 -0.812,0.42 -0.476,0.028 -0.868,-0.308 -0.392,-0.28 -0.42,-0.756 -0.028,-0.476 0.252,-0.868 0.896,-1.064 1.848,-2.016 l 0.056,-0.056 q -0.504,-1.176 -0.728,-2.408 -0.224,-1.232 0,-2.52 0.056,-0.728 0.448,-1.568 0,-0.056 0.028,-0.056 0.028,0 0.028,-0.056 0.336,-0.728 0.952,-1.344 0.504,-0.504 1.176,-0.784 0.672,-0.336 1.344,-0.336 1.232,0.112 1.96,0.952 0.616,0.616 0.728,1.96 0,0.392 -0.056,0.784 -0.056,0.392 -0.168,0.784 -0.112,0.448 -0.252,0.84 -0.14,0.392 -0.308,0.784 -0.448,1.008 -1.064,1.848 -0.616,0.84 -1.288,1.624 0.28,0.56 0.616,1.092 0.336,0.532 0.616,1.148 z m -2.24,-4.704 q 0.336,-0.448 0.644,-0.952 0.308,-0.504 0.588,-1.064 0.112,-0.28 0.224,-0.588 0.112,-0.308 0.168,-0.588 0.168,-0.56 0.112,-1.008 0,-0.392 -0.112,-0.448 0,-0.056 -0.168,-0.056 -0.112,-0.056 -0.392,0.056 -0.336,0.224 -0.504,0.392 -0.28,0.28 -0.448,0.672 l -0.056,0.056 q -0.224,0.504 -0.28,0.952 -0.168,1.288 0.224,2.576 z m 17.696,-5.824 q -0.784,0 -1.372,-0.56 -0.588,-0.56 -0.588,-1.344 0,-0.784 0.588,-1.344 0.588,-0.56 1.372,-0.56 0.784,0 1.344,0.56 0.56,0.56 0.56,1.344 0,0.784 -0.56,1.344 -0.56,0.56 -1.344,0.56 z m 3.696,16.016 q 0.448,0.168 0.644,0.644 0.196,0.476 -0.028,0.924 -0.784,1.68 -1.708,3.64 -0.924,1.96 -2.1,3.696 -1.288,1.904 -2.912,3.164 -1.624,1.26 -3.584,1.26 h -0.056 q -1.12,0 -1.904,-0.448 -0.784,-0.448 -1.288,-1.176 -0.448,-0.672 -0.616,-1.456 -0.168,-0.784 -0.168,-1.624 v -0.168 q 0,-1.288 0.616,-3.472 0.28,-1.008 0.588,-2.128 0.308,-1.12 0.756,-2.296 0.112,-0.448 0.448,-1.316 0.336,-0.868 0.784,-2.156 0.448,-1.288 0.952,-2.716 0.504,-1.428 1.064,-2.828 0.056,-0.224 0.168,-0.56 l 0.28,-0.84 0.952,-2.576 q 0.112,-0.448 0.56,-0.672 0.448,-0.224 0.896,-0.056 0.448,0.112 0.672,0.56 0.224,0.448 0.056,0.896 l -0.896,2.632 -0.504,1.4 q -0.616,1.736 -1.12,3.136 -0.504,1.4 -0.896,2.464 -0.392,1.064 -0.672,1.904 -0.28,0.84 -0.504,1.456 -0.448,1.176 -0.756,2.24 -0.308,1.064 -0.588,2.016 -0.224,0.952 -0.364,1.68 -0.14,0.728 -0.14,1.288 v 0.112 q 0,0.504 0.084,0.98 0.084,0.476 0.308,0.812 0.392,0.56 1.232,0.56 h 0.056 q 1.288,0 2.408,-0.952 1.12,-0.952 2.128,-2.408 1.12,-1.624 1.988,-3.5 0.868,-1.876 1.596,-3.5 0.224,-0.448 0.672,-0.644 0.448,-0.196 0.896,0.028 z m 11.704,0 q 0.448,0.224 0.616,0.672 0.168,0.448 -0.056,0.896 -0.896,1.904 -1.736,3.472 -0.84,1.568 -1.68,2.856 -1.736,2.632 -3.64,4.032 -1.008,0.672 -2.128,1.008 -1.12,0.392 -2.352,0.392 h -0.056 q -0.84,0 -1.596,-0.308 -0.756,-0.308 -1.316,-0.924 -1.176,-1.288 -1.176,-3.472 V 62.44 62.328 q 0,-1.288 0.616,-3.472 0.28,-1.008 0.588,-2.128 0.308,-1.12 0.756,-2.296 0.112,-0.448 0.448,-1.316 0.336,-0.868 0.784,-2.156 0.448,-1.288 0.952,-2.688 0.504,-1.4 1.064,-2.856 0.056,-0.224 0.28,-0.868 0.224,-0.644 0.56,-1.596 h -3.528 q -0.504,0 -0.84,-0.336 -0.336,-0.336 -0.336,-0.84 0,-0.448 0.336,-0.812 0.336,-0.364 0.84,-0.364 h 4.312 q 0.112,-0.28 0.224,-0.616 0.112,-0.336 0.224,-0.616 0.392,-1.176 0.784,-2.324 0.392,-1.148 0.728,-2.128 0.336,-0.98 0.588,-1.68 0.252,-0.7 0.364,-0.98 0.168,-0.448 0.616,-0.672 0.448,-0.224 0.896,-0.056 0.448,0.168 0.672,0.616 0.224,0.448 0.056,0.896 -0.112,0.28 -0.364,0.98 -0.252,0.7 -0.588,1.652 -0.336,0.952 -0.728,2.128 l -0.784,2.352 q -0.056,0.112 -0.084,0.224 -0.028,0.112 -0.084,0.224 h 3.752 q 0.504,0 0.84,0.364 0.336,0.364 0.336,0.812 0,0.504 -0.336,0.84 -0.336,0.336 -0.84,0.336 h -4.592 q -0.392,1.176 -0.7,2.016 -0.308,0.84 -0.42,1.232 -0.616,1.68 -1.12,3.108 -0.504,1.428 -0.896,2.492 -0.392,1.064 -0.672,1.904 -0.28,0.84 -0.504,1.456 -0.448,1.176 -0.756,2.24 -0.308,1.064 -0.588,2.016 -0.224,0.952 -0.364,1.68 -0.14,0.728 -0.14,1.288 v 0.112 q 0,1.288 0.56,1.848 0.392,0.504 1.176,0.504 h 0.056 q 0.672,0 1.624,-0.28 0.84,-0.28 1.512,-0.728 0.784,-0.56 1.512,-1.4 0.728,-0.84 1.512,-1.96 0.784,-1.176 1.568,-2.688 0.784,-1.512 1.624,-3.36 0.224,-0.448 0.7,-0.616 0.476,-0.168 0.924,0.056 z m 21,-0.056 q 0.448,0.168 0.644,0.616 0.196,0.448 0.028,0.896 -1.4,3.192 -2.912,5.572 -1.512,2.38 -3.192,4.172 -1.68,1.792 -3.5,3.024 -1.82,1.232 -3.78,2.016 -0.728,0.336 -1.456,0.588 -0.728,0.252 -1.512,0.476 l -0.672,1.96 q -0.616,1.68 -1.232,3.332 -0.616,1.652 -1.568,2.996 -1.008,1.512 -2.408,2.436 -1.4,0.924 -3.416,1.036 h -0.644 q 0,0 -0.588,-0.056 -1.344,-0.112 -2.352,-0.616 -1.008,-0.504 -1.68,-1.232 -0.672,-0.784 -1.008,-1.708 -0.336,-0.924 -0.392,-1.876 v -0.784 q 0.168,-1.848 0.98,-2.968 0.812,-1.12 2.128,-1.792 1.316,-0.672 2.996,-1.064 1.68,-0.392 3.64,-0.728 1.064,-0.224 2.156,-0.42 1.092,-0.196 2.212,-0.476 l 0.672,-1.904 0.672,-1.904 q -0.952,0.84 -1.988,1.316 -1.036,0.476 -2.212,0.476 h -0.056 -0.056 q -1.12,0 -1.904,-0.448 -0.784,-0.448 -1.288,-1.176 -0.448,-0.672 -0.616,-1.456 -0.168,-0.784 -0.168,-1.624 v -0.168 q 0.056,-0.672 0.196,-1.54 0.14,-0.868 0.42,-1.932 0.28,-1.008 0.616,-2.128 0.336,-1.12 0.728,-2.296 0.224,-0.616 0.616,-1.792 0.392,-1.176 1.008,-2.8 0.728,-1.96 1.54,-4.172 0.812,-2.212 1.596,-4.34 0.168,-0.448 0.616,-0.644 0.448,-0.196 0.896,-0.028 0.448,0.168 0.644,0.616 0.196,0.448 0.028,0.896 -0.896,2.464 -1.68,4.676 -0.784,2.212 -1.4,3.836 -0.56,1.512 -0.98,2.688 -0.42,1.176 -0.644,1.792 -0.392,1.176 -0.7,2.24 -0.308,1.064 -0.588,2.016 -0.28,0.952 -0.392,1.68 -0.112,0.728 -0.168,1.288 v 0.112 h 0.056 q 0,0.504 0.056,0.98 0.056,0.476 0.336,0.812 0.392,0.56 1.232,0.56 h 0.056 q 1.288,0 2.436,-1.008 1.148,-1.008 2.156,-2.52 1.008,-1.512 1.848,-3.304 0.84,-1.792 1.512,-3.36 l 0.056,-0.168 q 0.056,-0.056 0.056,-0.112 0.168,-0.448 0.364,-0.952 0.196,-0.504 0.364,-0.952 0.448,-1.288 1.008,-2.8 l 1.12,-3.024 q 0,0 1.092,-2.856 1.092,-2.856 0.868,-2.296 l 0.056,-0.056 v -0.056 q 0.168,-0.448 0.616,-0.672 0.448,-0.224 0.896,0 0.448,0.168 0.672,0.616 0.224,0.448 0.056,0.896 l -0.056,0.056 v 0.056 q -0.392,0.952 -0.896,2.296 -0.504,1.344 -1.064,2.828 -0.56,1.484 -1.12,2.996 -0.56,1.512 -1.064,2.8 -0.672,1.904 -1.4,3.948 -0.728,2.044 -1.568,4.396 -0.616,1.68 -1.176,3.36 -0.56,1.68 -1.176,3.416 l 0.56,-0.224 0.56,-0.224 q 1.736,-0.728 3.332,-1.792 1.596,-1.064 3.108,-2.688 1.568,-1.624 2.968,-3.808 1.4,-2.184 2.688,-5.208 0.168,-0.448 0.616,-0.644 0.448,-0.196 0.896,0.028 z M 155.12,71.848 q -0.784,0.168 -1.54,0.308 -0.756,0.14 -1.54,0.308 -1.568,0.28 -2.94,0.56 -1.372,0.28 -2.408,0.756 -1.036,0.476 -1.68,1.204 -0.644,0.728 -0.756,1.904 v 0.504 q 0.112,1.232 0.784,2.016 0.896,0.952 2.52,1.12 0.224,0.056 0.448,0.056 h 0.504 q 1.344,-0.056 2.296,-0.728 0.952,-0.672 1.624,-1.68 0.784,-1.176 1.372,-2.688 0.588,-1.512 1.148,-3.08 z"
       id="path10"
       style="fill:#2eb814;fill-opacity:1"
       inkscape:connector-curvature="0" />
  </g>
  <g
     id="SvgjsG1521"
     rel="mainfill"
     name="symbol"
     transform="matrix(1.0188858,0,0,1.0188858,152.81992,173.82832)"
     style="fill:#2eb814;fill-opacity:1">
    <g
       id="g19"
       style="fill:#2eb814;fill-opacity:1">
      <path
         d="M 43.094,60.789 28.168,52.576 v -2.682 l 14.926,-9.3 v 4.5 l -10.281,5.943 10.281,5.27 z"
         id="path13"
         style="fill:#2eb814;fill-opacity:1"
         inkscape:connector-curvature="0" />
      <path
         d="M 56.981,37.182 48.79,64.595 h -4.164 l 8.192,-27.413 z"
         id="path15"
         style="fill:#2eb814;fill-opacity:1"
         inkscape:connector-curvature="0" />
      <path
         d="m 58.454,56.308 10.281,-5.27 -10.281,-5.943 v -4.5 l 14.926,9.3 v 2.682 L 58.454,60.79 Z"
         id="path17"
         style="fill:#2eb814;fill-opacity:1"
         inkscape:connector-curvature="0" />
    </g>
    <g
       id="g23"
       style="fill:#2eb814;fill-opacity:1">
      <path
         d="M 50.774,92.11 C 28.045,92.11 9.552,73.618 9.552,50.889 9.552,28.16 28.045,9.667 50.774,9.667 c 22.729,0 41.222,18.492 41.222,41.221 0,22.729 -18.492,41.222 -41.222,41.222 z m 0,-80 c -21.383,0 -38.778,17.396 -38.778,38.779 0,21.383 17.396,38.779 38.778,38.779 21.382,0 38.778,-17.396 38.778,-38.779 0,-21.383 -17.395,-38.779 -38.778,-38.779 z"
         id="path21"
         style="fill:#2eb814;fill-opacity:1"
         inkscape:connector-curvature="0" />
    </g>
  </g>
</svg>
